<svg xmlns="http://www.w3.org/2000/svg" viewBox="0 0 48 48" width="48" height="48">
  <defs>
    <linearGradient id="glow" x1="0%" y1="0%" x2="100%" y2="100%">
      <stop offset="0%" style="stop-color:#2ECC71;stop-opacity:1"/>
      <stop offset="100%" style="stop-color:#27AE60;stop-opacity:1"/>
    </linearGradient>
  </defs>
  <!-- Chess knight (sharp sports = chess/strategy imagery) -->
  <path d="M16 40h16v3H16zM14 38h20v3H14z" fill="#2ECC71" opacity="0.8"/>
  <path d="M18 38c0-6 2-10 2-14s-3-8-3-12c0-3 2-5 5-6 1 2 3 3 5 3 2 0 4-1 5-3 2 1 3 3 3 5 0 3-1 5-2 8s1 8 1 13c0 2-1 4-3 5H21c-2-1-3-3-3-5z" fill="url(#glow)"/>
  <circle cx="22" cy="14" r="1.5" fill="#0A0F0D"/>
  <path d="M20 18c1-1 3-1 5 0" stroke="#0A0F0D" stroke-width="0.8" fill="none" stroke-linecap="round"/>
</svg>
